{"title":"Char Sahibzade 2014 Punjabi DVD SCR GOPI SAHI PDR","uid":11472333,"size":724171079,"categoryP":"video","categoryS":"movies","magnet":"?xt=urn:btih:17052efee88237af8ca647a47820c465b7e6db6b&amp;dn=Char+Sahibzade+2014+Punjabi+DVD+SCR+GOPI+SAHI+PDR&amp;tr=udp%3A%2F%2Ftracker.openbittorrent.com%3A80&amp;tr=udp%3A%2F%2Fopen.demonii.com%3A1337&amp;tr=udp%3A%2F%2Ftracker.coppersurfer.tk%3A6969&amp;tr=udp%3A%2F%2Fexodus.desync.com%3A6969","seeders":21,"leechers":0,"uploader":"jatt13","files":1,"time":1416106797,"description":"General\nUnique ID                      : 219195345178477794983673178752656633884 (0xA4E77CE6AF019A90A6952D2B10AC701C)\nComplete name                  : D:Char Sahibzade 2014 Punjabi DVD SCR GOPI SAHI PDR.mkv\nFormat                         : Matroska\nFormat version                 : Version 4 / Version 2\nFile size                      : 691 MiB\nDuration                       : 1h 51mn\nOverall bit rate               : 867 Kbps\nMovie name                     : GOPI SAHI\nEncoded date                   : UTC 2014-11-16 15:07:05\nWriting application            : mkvmerge v6.5.0 ('Isn't she lovely') built on Oct 20 2013 12:50:05\nWriting library                : libebml v1.3.0 + libmatroska v1.4.1\n\nVideo\nID                             : 1\nFormat                         : MPEG-4 Visual\nFormat profile                 : Advanced Simple@L5\nFormat settings, BVOP          : Yes\nFormat settings, QPel          : No\nFormat settings, GMC           : No warppoints\nFormat settings, Matrix        : Default (H.263)\nCodec ID                       : V_MS/VFW/FOURCC / XVID\nCodec ID/Hint                  : XviD\nDuration                       : 1h 51mn\nBit rate                       : 721 Kbps\nWidth                          : 640 pixels\nHeight                         : 272 pixels\nDisplay aspect ratio           : 2.35:1\nFrame rate mode                : Constant\nFrame rate                     : 25.000 fps\nColor space                    : YUV\nChroma subsampling             : 4:2:0\nBit depth                      : 8 bits\nScan type                      : Progressive\nCompression mode               : Lossy\nBits/(Pixel*Frame)             : 0.166\nStream size                    : 575 MiB (83%)\nTitle                          : GOPI SAHI\nWriting library                : XviD 1.2.1 (UTC 2008-12-04)\nLanguage                       : Panjabi\nDefault                        : Yes\nForced                         : No\n\nAudio\nID                             : 2\nFormat                         : MPEG Audio\nFormat version                 : Version 1\nFormat profile                 : Layer 3\nMode                           : Joint stereo\nMode extension                 : MS Stereo\nCodec ID                       : A_MPEG/L3\nCodec ID/Hint                  : MP3\nDuration                       : 1h 51mn\nBit rate mode                  : Constant\nBit rate                       : 128 Kbps\nChannel(s)                     : 2 channels\nSampling rate                  : 48.0 KHz\nCompression mode               : Lossy\nStream size                    : 102 MiB (15%)\nTitle                          : GOPI SAHI\nWriting library                : LAME3.99r\nEncoding settings              : -m j -V 4 -q 2 -lowpass 17 -b 128\nLanguage                       : Panjabi\nDefault                        : Yes\nForced                         : No\n[IMG] http://imgchicken.com/images/22914302602770758863.png\n[IMG] http://imgchicken.com/images/21110588388103076871.png\n[IMG] http://imgchicken.com/images/64186195973031497896.png","torrent":{"xt":"urn:btih:17052efee88237af8ca647a47820c465b7e6db6b","amp;dn":"Char+Sahibzade+2014+Punjabi+DVD+SCR+GOPI+SAHI+PDR","amp;tr":["udp%3A%2F%2Ftracker.openbittorrent.com%3A80","udp%3A%2F%2Fopen.demonii.com%3A1337","udp%3A%2F%2Ftracker.coppersurfer.tk%3A6969","udp%3A%2F%2Fexodus.desync.com%3A6969"],"infoHash":"17052efee88237af8ca647a47820c465b7e6db6b","infoHashBuffer":{"type":"Buffer","data":[23,5,46,254,232,130,55,175,140,166,71,164,120,32,196,101,183,230,219,107]},"announce":[],"urlList":[]}}